<?xml version="1.0" standalone="no"?>
<!DOCTYPE svg PUBLIC "-//W3C//DTD SVG 20010904//EN"
 "http://www.w3.org/TR/2001/REC-SVG-20010904/DTD/svg10.dtd">
<svg version="1.0" xmlns="http://www.w3.org/2000/svg"
 width="212.000000pt" height="212.000000pt" viewBox="0 0 212.000000 212.000000"
 preserveAspectRatio="xMidYMid meet">
<metadata>
Created by potrace 1.15, written by Peter Selinger 2001-2017
</metadata>
<g transform="translate(0.000000,212.000000) scale(0.100000,-0.100000)"
fill="#000000" stroke="none">
<path d="M441 1876 c-264 -153 -317 -188 -333 -216 -16 -32 -18 -64 -18 -390
0 -318 2 -359 18 -390 13 -26 42 -49 124 -98 l108 -63 0 -112 c0 -156 3 -161
166 -255 474 -273 509 -292 539 -292 29 0 133 57 574 312 123 72 131 85 131
233 l0 110 108 61 c164 93 152 56 152 488 0 324 -2 365 -18 396 -15 29 -61 60
-332 217 -247 143 -323 182 -352 183 -26 0 -64 -16 -141 -60 -57 -33 -110 -60
-116 -60 -7 0 -60 27 -117 60 -79 45 -113 60 -141 59 -30 0 -103 -38 -352
-183z m463 86 c43 -26 79 -52 80 -57 0 -6 -78 -56 -174 -112 -210 -122 -209
-120 -210 -283 l0 -105 -107 -61 c-59 -34 -117 -73 -128 -88 -18 -25 -20 -46
-25 -251 l-5 -224 -85 49 c-46 27 -90 56 -97 66 -17 23 -19 700 -2 737 15 32
602 375 644 376 18 0 60 -18 109 -47z m724 -124 c163 -95 305 -181 314 -190
17 -17 18 -48 18 -377 0 -327 -2 -361 -17 -379 -10 -11 -57 -43 -105 -71 l-88
-51 0 218 c0 274 4 264 -142 351 l-108 63 0 112 c0 161 2 158 -209 280 -95 56
-173 105 -173 111 0 14 164 105 190 105 12 0 156 -78 320 -172z m-385 -74
c125 -72 188 -114 196 -131 6 -13 11 -48 11 -78 0 -44 -4 -57 -22 -69 -12 -9
-28 -16 -35 -16 -7 0 -79 38 -160 85 -191 110 -182 110 -371 3 l-144 -81 -34
18 c-32 17 -34 21 -34 72 0 49 4 58 33 85 32 31 342 216 364 217 6 1 94 -47
196 -105z m-45 -247 c68 -39 125 -73 127 -77 3 -4 -56 -39 -130 -78 l-134 -72
-141 77 c-77 42 -140 79 -140 82 0 6 52 36 202 118 34 18 66 29 76 26 9 -3 72
-38 140 -76z m-573 -652 c11 -14 97 -70 190 -124 l170 -99 29 -171 c16 -94 31
-169 33 -167 2 2 16 77 31 167 l28 164 179 105 c148 87 183 112 197 140 15 30
18 65 18 248 l0 213 71 -38 c39 -21 84 -50 100 -65 l29 -26 0 -355 c0 -355 0
-356 -22 -381 -30 -34 -605 -366 -633 -366 -28 0 -603 332 -632 366 -23 25
-23 26 -23 378 0 282 3 356 14 371 7 10 53 42 102 70 l89 51 5 -227 c5 -208 7
-230 25 -254z"/>
</g>
</svg>
